<?xml version="1.0" encoding="utf-8"?>
<!-- Generator: Adobe Illustrator 19.1.0, SVG Export Plug-In . SVG Version: 6.00 Build 0)  -->
<!DOCTYPE svg PUBLIC "-//W3C//DTD SVG 1.1//EN" "http://www.w3.org/Graphics/SVG/1.1/DTD/svg11.dtd">
<svg version="1.1" id="Layer_1" xmlns="http://www.w3.org/2000/svg" xmlns:xlink="http://www.w3.org/1999/xlink" x="0px" y="0px"
	 viewBox="-62 64 24 24" style="enable-background:new -62 64 24 24;" xml:space="preserve">
<style type="text/css">
	.st0{fill:#72D3A7;}
	.st1{fill:#9DE895;}
	.st2{fill:#4CC9A6;}
</style>
<g>
	<path class="st0" d="M-49.6,70.2l-3.7-3.7c-0.2-0.2-0.6-0.2-0.8,0c-0.2,0.2-0.2,0.6,0,0.8l3.6,3.6c0.2,0.2,0.6,0.2,0.8,0
		C-49.4,70.8-49.4,70.4-49.6,70.2"/>
	<path class="st0" d="M-49.5,70.8l3.6-3.6c0.2-0.2,0.2-0.6,0-0.8c-0.2-0.2-0.6-0.2-0.8,0l-3.6,3.6c-0.2,0.2-0.2,0.6,0,0.8
		C-50.1,71-49.7,71.1-49.5,70.8"/>
	<path class="st1" d="M-42.9,74.8l2.5-4.5c0.2-0.3,0-0.6-0.2-0.7c-0.3-0.2-0.6,0-0.7,0.2l-2.5,4.5c-0.2,0.3,0,0.6,0.2,0.7
		C-43.4,75.2-43,75.1-42.9,74.8"/>
	<path class="st0" d="M-43.5,75.1l4.5,2.5c0.3,0.2,0.6,0,0.7-0.2c0.2-0.3,0-0.6-0.2-0.7l-4.5-2.5c-0.3-0.2-0.6,0-0.7,0.2
		C-43.8,74.6-43.7,74.9-43.5,75.1"/>
	<path class="st1" d="M-46.4,82.4l5,1.1c0.3,0.1,0.6-0.1,0.7-0.4c0.1-0.3-0.1-0.6-0.4-0.7l-5-1.1c-0.3-0.1-0.6,0.1-0.7,0.4
		C-46.9,82-46.7,82.3-46.4,82.4"/>
	<path class="st0" d="M-46.8,81.9l-1.1,5c-0.1,0.3,0.1,0.6,0.4,0.7c0.3,0.1,0.6-0.1,0.7-0.4l1.1-5c0.1-0.3-0.1-0.6-0.4-0.7
		C-46.5,81.4-46.8,81.6-46.8,81.9"/>
	<path class="st0" d="M-54,81.8l0.5,5.1c0,0.3,0.3,0.5,0.6,0.5s0.5-0.3,0.5-0.6l-0.5-5.1c0-0.3-0.3-0.5-0.6-0.5
		C-53.8,81.2-54,81.5-54,81.8"/>
	<path class="st1" d="M-53.8,81.3l-4.9,0.5c-0.3,0-0.5,0.3-0.5,0.6c0,0.3,0.3,0.5,0.6,0.5l4.9-0.5c0.3,0,0.5-0.3,0.5-0.6
		C-53.3,81.5-53.5,81.2-53.8,81.3"/>
	<path class="st1" d="M-56,74.3l-2.5-4.5c-0.2-0.3-0.5-0.4-0.7-0.2s-0.4,0.5-0.2,0.7l2.5,4.5c0.2,0.3,0.5,0.4,0.7,0.2
		S-55.8,74.6-56,74.3"/>
	<path class="st0" d="M-56.9,74.1l-4.5,2.5c-0.3,0.2-0.4,0.5-0.2,0.7c0.2,0.3,0.5,0.4,0.7,0.2l4.5-2.5c0.3-0.2,0.4-0.5,0.2-0.7
		S-56.6,74-56.9,74.1"/>
	<path class="st2" d="M-50.6,64.9v11.9c0,0.2,0.1,0.4,0.2,0.4c0.1,0.1,0.3,0.1,0.5,0.1l11.2-3.7c0.3-0.1,0.4-0.4,0.4-0.7
		c-0.1-0.3-0.4-0.4-0.7-0.4l-11.3,3.7c-0.2,0-0.3,0.2-0.4,0.4s0,0.4,0.1,0.5l6.9,9.6c0.1,0.1,0.2,0.2,0.4,0.2c0.2,0,0.3,0,0.4-0.1
		c0.1-0.1,0.2-0.2,0.2-0.4c0-0.2,0-0.3-0.1-0.4l-7-9.6c-0.1-0.1-0.3-0.2-0.4-0.2s-0.4,0.1-0.4,0.2l-6.9,9.6
		c-0.1,0.1-0.1,0.3-0.1,0.4c0,0.2,0.1,0.3,0.2,0.4c0.1,0.1,0.3,0.1,0.4,0.1c0.2,0,0.3-0.1,0.4-0.2l6.9-9.6c0.1-0.1,0.1-0.3,0.1-0.5
		c0-0.2-0.2-0.3-0.4-0.4l-11.2-3.7c-0.2,0-0.3,0-0.4,0c-0.1,0.1-0.2,0.2-0.3,0.3c0,0.1,0,0.3,0,0.4c0.1,0.1,0.2,0.2,0.3,0.3
		l11.3,3.7c0.2,0,0.3,0,0.5-0.1s0.2-0.3,0.2-0.4V65c0-0.2,0-0.3-0.1-0.4c-0.1-0.1-0.2-0.2-0.4-0.2s-0.3,0-0.4,0.1
		C-50.5,64.7-50.5,64.9-50.6,64.9L-50.6,64.9V76l-10.5-3.4c-0.3-0.1-0.6,0.1-0.7,0.4c-0.1,0.3,0.1,0.6,0.4,0.7l10.5,3.4l-6.5,9
		c-0.2,0.2-0.1,0.6,0.1,0.8c0.2,0.2,0.6,0.1,0.8-0.1l6.5-9l6.5,9c0.2,0.2,0.5,0.3,0.8,0.1c0.2-0.2,0.3-0.5,0.1-0.8l-6.5-8.9
		l10.5-3.4c0.1,0,0.3-0.1,0.3-0.3c0.1-0.1,0.1-0.3,0-0.4c0-0.1-0.1-0.3-0.3-0.3c-0.1-0.1-0.3-0.1-0.4,0L-49.5,76V65
		c0-0.2-0.1-0.3-0.1-0.4c-0.1-0.1-0.2-0.2-0.4-0.2s-0.3,0-0.4,0.1C-50.5,64.7-50.5,64.9-50.6,64.9L-50.6,64.9z"/>
</g>
</svg>
