<?xml version="1.0" encoding="utf-8"?>
<!-- Generator: Adobe Illustrator 19.1.0, SVG Export Plug-In . SVG Version: 6.00 Build 0)  -->
<!DOCTYPE svg PUBLIC "-//W3C//DTD SVG 1.1//EN" "http://www.w3.org/Graphics/SVG/1.1/DTD/svg11.dtd">
<svg version="1.1" id="Layer_1" xmlns="http://www.w3.org/2000/svg" xmlns:xlink="http://www.w3.org/1999/xlink" x="0px" y="0px"
	 viewBox="-10 12 128 128" style="enable-background:new -10 12 128 128;" xml:space="preserve">
<style type="text/css">
	.st0{opacity:0.6;fill:#D1D1D1;enable-background:new    ;}
	.st1{fill:#FFFFFF;stroke:#D8D8D8;stroke-miterlimit:10;}
	.st2{fill:#B0FFB6;}
	.st3{fill:#72D3A7;}
	.st4{fill:#9DE895;}
	.st5{fill:#4CC9A6;}
</style>
<path class="st0" d="M111.6,136.3H1.6c-3.5,0-6.4-2.9-6.4-6.4V23.4c0.1-3.5,3-6.4,6.5-6.4h110c3.5,0,6.4,2.9,6.4,6.4V130
	C118,133.5,115.1,136.3,111.6,136.3z"/>
<path class="st1" d="M107,131.8H-3c-3.5,0-6.4-2.9-6.4-6.4V18.9c0-3.5,2.9-6.4,6.4-6.4h110c3.5,0,6.4,2.9,6.4,6.4v106.6
	C113.4,129,110.5,131.8,107,131.8z"/>
<g>
	<polygon class="st2" points="-0.1,42.2 0.6,42.2 0.6,39.9 2.6,39.9 2.6,39.4 0.6,39.4 0.6,37.6 2.9,37.6 2.9,37.1 -0.1,37.1 	"/>
	<path class="st2" d="M103.7,117.3l-1.3-2.3c0.7-0.2,1.2-0.7,1.2-1.5c0-1.1-0.8-1.4-1.8-1.4h-1.6v5.2h0.7v-2.2h0.9l1.2,2.2H103.7z
		 M100.8,112.7h0.9c0.8,0,1.2,0.2,1.2,0.9c0,0.7-0.4,1-1.2,1h-0.9V112.7z"/>
	<path class="st2" d="M102,41.9h0.6v-2.8c0-0.5,0-1.1-0.1-1.5h0l0.4,1.1l1,2.7h0.4l1-2.7l0.4-1.1h0c0,0.5-0.1,1.1-0.1,1.5v2.8h0.6
		v-5.2h-0.8l-1,2.8l-0.4,1.1h0l-0.4-1.1l-1-2.8H102V41.9z"/>
	<path class="st3" d="M53.5,45.3L36.8,28.6c-1-1-2.6-1-3.5,0s-1,2.6,0,3.5l16.6,16.6c1,1,2.6,1,3.5,0S54.4,46.2,53.5,45.3"/>
	<path class="st3" d="M53.7,48.1l16.6-16.6c1-1,1-2.6,0-3.5c-1-0.9-2.6-1-3.5,0L50.2,44.6c-1,1-1,2.6,0,3.5S52.8,49.1,53.7,48.1"/>
	<path class="st4" d="M84.1,66.4l11.2-20.7c0.7-1.2,0.2-2.7-1-3.4s-2.7-0.2-3.4,1L79.7,64c-0.7,1.2-0.2,2.7,1,3.4
		S83.4,67.6,84.1,66.4"/>
	<path class="st3" d="M81.4,67.5l20.7,11.2c1.2,0.7,2.7,0.2,3.4-1s0.2-2.7-1-3.4L83.8,63.1c-1.2-0.7-2.7-0.2-3.4,1
		S80.2,66.8,81.4,67.5"/>
	<path class="st4" d="M67.9,100.7l23,4.8c1.4,0.3,2.7-0.6,3-1.9c0.3-1.4-0.6-2.7-1.9-3l-23-4.8c-1.4-0.3-2.7,0.6-3,1.9
		C65.7,99.1,66.6,100.4,67.9,100.7"/>
	<path class="st3" d="M66.1,98.5l-4.8,23c-0.3,1.4,0.6,2.7,1.9,3c1.4,0.3,2.7-0.6,3-1.9l4.8-23c0.3-1.4-0.6-2.7-1.9-3
		C67.7,96.3,66.4,97.2,66.1,98.5"/>
	<path class="st3" d="M33.4,98.1l2.4,23.4c0.1,1.4,1.4,2.4,2.7,2.2s2.4-1.4,2.2-2.7l-2.4-23.4c-0.1-1.4-1.4-2.4-2.7-2.2
		S33.3,96.8,33.4,98.1"/>
	<path class="st4" d="M34,95.8l-22.5,2.4c-1.4,0.1-2.4,1.4-2.2,2.8c0.1,1.4,1.4,2.4,2.8,2.2l22.5-2.4c1.4-0.1,2.4-1.4,2.2-2.8
		S35.4,95.6,34,95.8"/>
	<path class="st4" d="M24.3,64L13.1,43.3c-0.7-1.2-2.2-1.7-3.4-1c-1.2,0.7-1.7,2.2-1,3.4l11.2,20.7c0.7,1.2,2.2,1.7,3.4,1
		S25,65.2,24.3,64"/>
	<path class="st3" d="M20.2,63.1L-0.5,74.3c-1.2,0.7-1.7,2.2-1,3.4s2.2,1.7,3.4,1l20.7-11.2c1.2-0.7,1.7-2.2,1-3.4
		C22.9,62.9,21.4,62.4,20.2,63.1"/>
	<path class="st5" d="M49.1,21.3v54c0,0.8,0.4,1.6,1,2s1.5,0.6,2.2,0.4L103.6,61c1.3-0.4,2-1.8,1.6-3.2c-0.4-1.3-1.8-2-3.1-1.6
		L50.7,72.9c-0.8,0.2-1.4,0.8-1.6,1.6s-0.1,1.6,0.4,2.2l31.7,43.7c0.4,0.5,1,0.9,1.6,1c0.7,0.1,1.3-0.1,1.9-0.4c0.5-0.4,0.9-1,1-1.6
		c0.1-0.7-0.1-1.3-0.4-1.9L53.4,73.8c-0.5-0.6-1.2-1-2-1s-1.6,0.4-2,1l-31.7,43.7c-0.4,0.5-0.5,1.2-0.4,1.9c0.1,0.7,0.5,1.2,1,1.6
		s1.2,0.5,1.9,0.4c0.7-0.1,1.2-0.5,1.6-1l31.7-43.7c0.5-0.6,0.6-1.5,0.4-2.2c-0.2-0.8-0.8-1.4-1.6-1.6L1,56.2
		c-0.7-0.2-1.4-0.1-2,0.2s-1,0.8-1.2,1.5c-0.2,0.6-0.2,1.3,0.2,1.9c0.3,0.6,0.8,1,1.5,1.2L51,77.7c0.8,0.2,1.6,0.1,2.2-0.4
		s1-1.2,1-2v-54c0-0.7-0.3-1.3-0.7-1.8c-0.5-0.5-1.1-0.7-1.8-0.7s-1.3,0.3-1.8,0.7C49.4,20,49.2,20.6,49.1,21.3L49.1,21.3v50.5
		L0.9,56.2c-1.3-0.4-2.7,0.3-3.1,1.6c-0.4,1.3,0.3,2.7,1.6,3.1l47.9,15.6l-29.7,40.9c-0.8,1.1-0.6,2.7,0.6,3.5
		c1.1,0.8,2.7,0.6,3.5-0.6l29.7-40.9l29.7,40.9c0.8,1.1,2.4,1.4,3.5,0.6s1.4-2.4,0.6-3.5L55.5,76.6L103.6,61
		c0.6-0.2,1.2-0.6,1.5-1.2c0.3-0.6,0.4-1.3,0.2-1.9c-0.2-0.6-0.6-1.2-1.2-1.5c-0.6-0.3-1.3-0.4-1.9-0.1L54.1,71.8V21.3
		c0-0.7-0.3-1.3-0.7-1.8c-0.5-0.5-1.1-0.7-1.8-0.7s-1.3,0.3-1.8,0.7C49.3,20,49.1,20.6,49.1,21.3L49.1,21.3z"/>
	<path class="st2" d="M52.7,121.4h0.7l-1.7-5.2h-0.7l-1.7,5.2h0.7l0.5-1.6h1.9L52.7,121.4z M50.5,119.3l0.3-0.8
		c0.2-0.6,0.3-1.1,0.5-1.7h0c0.2,0.6,0.3,1.2,0.5,1.7l0.2,0.8H50.5z"/>
	<path class="st2" d="M36.6,58v-2h0.9c0.9,0,1.4,0.3,1.4,0.9c0,0.7-0.5,1-1.4,1H36.6z M36.6,55.5v-1.7h0.8c0.8,0,1.2,0.2,1.2,0.8
		c0,0.6-0.4,0.9-1.2,0.9H36.6z M36,58.5h1.7c1.1,0,2-0.5,2-1.5c0-0.7-0.4-1.1-1.2-1.2v0c0.6-0.2,0.9-0.6,0.9-1.1
		c0-0.9-0.7-1.3-1.8-1.3H36V58.5z"/>
	<path class="st2" d="M77.4,85v-4.1H78c1.2,0,1.8,0.7,1.8,2c0,1.3-0.6,2.1-1.8,2.1H77.4z M76.7,85.6H78c1.6,0,2.4-1,2.4-2.6
		c0-1.6-0.9-2.6-2.4-2.6h-1.3V85.6z"/>
	<path class="st2" d="M78.2,40c0,1.7,1,2.7,2.3,2.7c0.7,0,1.3-0.3,1.6-0.6v-2.2h-1.7v0.5h1.1v1.3c-0.2,0.2-0.6,0.3-0.9,0.3
		c-1.1,0-1.7-0.8-1.7-2.1c0-1.3,0.7-2.1,1.7-2.1c0.5,0,0.8,0.2,1.1,0.5l0.4-0.4c-0.3-0.3-0.8-0.6-1.5-0.6
		C79.2,37.3,78.2,38.4,78.2,40z"/>
	<polygon class="st2" points="65.5,57.9 68.6,57.9 68.6,57.3 66.2,57.3 66.2,55.5 68.2,55.5 68.2,54.9 66.2,54.9 66.2,53.3 
		68.5,53.3 68.5,52.7 65.5,52.7 	"/>
	<path class="st2" d="M26,85.2c0.3,0.5,0.8,0.8,1.4,0.8c1,0,1.4-0.7,1.4-1.6v-3.6h-0.7v3.6c0,0.8-0.3,1.1-0.8,1.1
		c-0.4,0-0.7-0.2-0.9-0.6L26,85.2z"/>
	<polygon class="st2" points="7.4,90.8 8,90.8 8,88.4 10.4,88.4 10.4,90.8 11.1,90.8 11.1,85.6 10.4,85.6 10.4,87.8 8,87.8 8,85.6 
		7.4,85.6 	"/>
	<path class="st2" d="M90.6,28.5c0.4,0.5,1.1,0.8,1.8,0.8c1.1,0,1.8-0.7,1.8-1.5c0-0.8-0.5-1.1-1.1-1.4l-0.7-0.3
		c-0.4-0.2-0.9-0.4-0.9-0.9c0-0.5,0.4-0.8,1-0.8c0.5,0,0.9,0.2,1.2,0.5l0.3-0.4c-0.4-0.4-0.9-0.6-1.5-0.6c-0.9,0-1.6,0.6-1.6,1.4
		c0,0.8,0.6,1.1,1,1.3l0.7,0.3c0.5,0.2,0.9,0.4,0.9,0.9c0,0.5-0.4,0.8-1.1,0.8c-0.5,0-1.1-0.3-1.4-0.6L90.6,28.5z"/>
	<polygon class="st2" points="23.6,42.3 26.6,42.3 26.6,41.7 24.3,41.7 24.3,37.1 23.6,37.1 	"/>
	<path class="st2" d="M14.2,29.2c-0.9,0-1.5-0.8-1.5-2.1c0-1.3,0.6-2.1,1.5-2.1c0.9,0,1.5,0.8,1.5,2.1
		C15.7,28.4,15.1,29.2,14.2,29.2z M14.2,29.8c1.3,0,2.2-1,2.2-2.7c0-1.6-0.9-2.7-2.2-2.7c-1.3,0-2.2,1-2.2,2.7
		C12,28.7,12.9,29.8,14.2,29.8z"/>
	<path class="st2" d="M50.1,100.7h0.6V98c0-0.5,0-1.1-0.1-1.6h0l0.6,1.1l1.9,3.3h0.7v-5.2h-0.6v2.7c0,0.5,0.1,1.1,0.1,1.6h0
		l-0.6-1.1l-1.9-3.2h-0.7V100.7z"/>
	<path class="st2" d="M99.3,92h0.8l1.6-5.2h-0.7l-0.8,2.8c-0.2,0.6-0.3,1.1-0.5,1.7h0c-0.2-0.6-0.3-1.1-0.5-1.7l-0.8-2.8h-0.7
		L99.3,92z"/>
	<path class="st2" d="M6.5,117c-0.1,0-0.3,0.1-0.5,0.1c-0.6,0-1-0.2-1.3-0.7c1.1-0.2,1.8-1.2,1.8-2.7c0-1.6-0.9-2.7-2.2-2.7
		s-2.2,1-2.2,2.7c0,1.5,0.8,2.5,1.9,2.7c0.3,0.7,1,1.2,1.9,1.2c0.3,0,0.6-0.1,0.7-0.1L6.5,117z M2.8,113.7c0-1.3,0.6-2.1,1.5-2.1
		s1.5,0.8,1.5,2.1c0,1.3-0.6,2.1-1.5,2.1S2.8,115,2.8,113.7z"/>
</g>
</svg>
