<?xml version="1.0" encoding="utf-8"?>
<!-- Generator: Adobe Illustrator 19.1.0, SVG Export Plug-In . SVG Version: 6.00 Build 0)  -->
<!DOCTYPE svg PUBLIC "-//W3C//DTD SVG 1.1//EN" "http://www.w3.org/Graphics/SVG/1.1/DTD/svg11.dtd">
<svg version="1.1" id="Layer_1" xmlns="http://www.w3.org/2000/svg" xmlns:xlink="http://www.w3.org/1999/xlink" x="0px" y="0px"
	 viewBox="0 0 150 150" style="enable-background:new 0 0 150 150;" xml:space="preserve">
<style type="text/css">
	.st0{fill:#B0FFB6;}
	.st1{fill:#72D3A7;}
	.st2{fill:#9DE895;}
	.st3{fill:#4CC9A6;}
	.st4{clip-path:url(#SVGID_2_);fill:#B0FFB6;}
	.st5{clip-path:url(#SVGID_4_);fill:#B0FFB6;}
</style>
<g>
	<polygon class="st0" points="5.5,36.9 6.4,36.9 6.4,33.8 9,33.8 9,33.1 6.4,33.1 6.4,30.8 9.5,30.8 9.5,30.1 5.5,30.1 	"/>
	<path class="st0" d="M142.6,136l-1.7-3c0.9-0.2,1.5-0.9,1.5-1.9c0-1.4-1-1.9-2.4-1.9h-2.1v6.8h0.9v-2.9h1.2l1.6,2.9H142.6z
		 M138.7,129.9h1.1c1.1,0,1.6,0.3,1.6,1.2c0,0.9-0.6,1.3-1.6,1.3h-1.1V129.9z"/>
	<path class="st0" d="M140.3,36.5h0.8v-3.8c0-0.6-0.1-1.4-0.1-2h0l0.5,1.5l1.3,3.6h0.5l1.3-3.6l0.5-1.5h0c0,0.6-0.1,1.4-0.1,2v3.8
		h0.8v-6.8h-1l-1.3,3.7l-0.5,1.4h0l-0.5-1.4l-1.3-3.7h-1V36.5z"/>
	<path class="st1" d="M76.2,40.9l-22-22c-1.3-1.3-3.4-1.3-4.7,0c-1.3,1.3-1.3,3.4,0,4.7l22,22c1.3,1.3,3.4,1.3,4.7,0
		C77.5,44.3,77.5,42.2,76.2,40.9"/>
	<path class="st1" d="M76.6,44.7l22-22c1.3-1.3,1.3-3.4,0-4.7s-3.4-1.3-4.7,0l-22,22c-1.3,1.3-1.3,3.4,0,4.7
		C73.2,46,75.3,45.9,76.6,44.7"/>
	<path class="st2" d="M116.6,68.8l14.8-27.3c0.9-1.6,0.3-3.6-1.3-4.5c-1.6-0.9-3.6-0.3-4.5,1.3l-14.8,27.3c-0.9,1.6-0.3,3.6,1.3,4.5
		C113.7,71,115.7,70.4,116.6,68.8"/>
	<path class="st1" d="M113.1,70.2L140.4,85c1.6,0.9,3.6,0.3,4.5-1.3c0.9-1.6,0.3-3.6-1.3-4.5l-27.3-14.8c-1.6-0.9-3.6-0.3-4.5,1.3
		C110.9,67.3,111.5,69.3,113.1,70.2"/>
	<path class="st2" d="M95.3,114.1l30.4,6.3c1.8,0.4,3.5-0.8,3.9-2.6c0.4-1.8-0.8-3.5-2.6-3.9l-30.4-6.3c-1.8-0.4-3.5,0.8-3.9,2.6
		C92.3,112,93.5,113.7,95.3,114.1"/>
	<path class="st1" d="M92.9,111.2l-6.3,30.4c-0.4,1.8,0.8,3.5,2.6,3.9s3.5-0.8,3.9-2.6l6.3-30.4c0.4-1.8-0.8-3.5-2.6-3.9
		C95,108.3,93.3,109.4,92.9,111.2"/>
	<path class="st1" d="M49.7,110.7l3.2,30.9c0.2,1.8,1.8,3.1,3.6,2.9s3.1-1.8,2.9-3.6L56.3,110c-0.2-1.8-1.8-3.1-3.6-2.9
		C50.9,107.3,49.6,108.9,49.7,110.7"/>
	<path class="st2" d="M50.6,107.6l-29.7,3.2c-1.8,0.2-3.1,1.8-2.9,3.6c0.2,1.8,1.8,3.1,3.6,2.9l29.7-3.2c1.8-0.2,3.1-1.8,2.9-3.6
		C54,108.7,52.4,107.4,50.6,107.6"/>
	<path class="st2" d="M37.7,65.6L22.9,38.3C22,36.7,20,36.1,18.4,37s-2.2,2.9-1.3,4.5l14.8,27.3c0.9,1.6,2.9,2.2,4.5,1.3
		C38,69.2,38.6,67.2,37.7,65.6"/>
	<path class="st1" d="M32.2,64.4L4.9,79.2c-1.6,0.9-2.2,2.9-1.3,4.5s2.9,2.2,4.5,1.3l27.3-14.8c1.6-0.9,2.2-2.9,1.3-4.5
		C35.9,64.1,33.8,63.5,32.2,64.4"/>
	<path class="st3" d="M70.5,9.3v71.2c0,1.1,0.5,2,1.4,2.7c0.9,0.6,2,0.8,3,0.5l67.6-22c1.7-0.6,2.7-2.4,2.1-4.2
		c-0.6-1.7-2.4-2.7-4.2-2.1l-67.8,22c-1,0.3-1.8,1.1-2.1,2.1c-0.3,1-0.2,2.1,0.5,3l41.8,57.6c0.5,0.7,1.3,1.2,2.2,1.3
		c0.9,0.1,1.7-0.1,2.5-0.6s1.2-1.3,1.3-2.2s-0.1-1.7-0.6-2.5L76.1,78.6c-0.6-0.9-1.6-1.4-2.7-1.4s-2,0.5-2.7,1.4l-41.9,57.6
		c-0.5,0.7-0.7,1.6-0.6,2.5s0.6,1.6,1.3,2.2c0.7,0.5,1.6,0.7,2.5,0.6c0.9-0.1,1.6-0.6,2.2-1.3l41.9-57.6c0.6-0.9,0.8-2,0.5-3
		s-1.1-1.8-2.1-2.1l-67.6-22c-0.8-0.3-1.7-0.2-2.5,0.2c-0.8,0.4-1.4,1-1.7,1.8S2.5,59.2,2.9,60s1.1,1.4,1.9,1.6l67.9,22
		c1,0.3,2.1,0.2,3-0.5c0.9-0.6,1.4-1.6,1.4-2.7V9.3c0-0.9-0.4-1.7-1-2.3s-1.5-1-2.3-1s-1.7,0.4-2.3,1C70.9,7.6,70.5,8.5,70.5,9.3
		L70.5,9.3V76L6.9,55.4c-1.7-0.6-3.6,0.4-4.2,2.1s0.4,3.6,2.1,4.2L68,82.3l-39.2,54c-1.1,1.5-0.7,3.5,0.7,4.6
		c1.5,1.1,3.5,0.7,4.6-0.7l39.2-54l39.2,54c1.1,1.5,3.1,1.8,4.6,0.7s1.8-3.1,0.7-4.6l-39.2-54l63.5-20.6c0.8-0.3,1.5-0.9,1.9-1.6
		c0.4-0.8,0.5-1.7,0.2-2.5s-0.9-1.5-1.6-1.9c-0.8-0.4-1.7-0.5-2.5-0.2L77.1,76V9.3c0-0.9-0.4-1.7-1-2.3s-1.5-1-2.3-1s-1.7,0.4-2.3,1
		C70.9,7.6,70.5,8.5,70.5,9.3L70.5,9.3z"/>
	<g>
		<defs>
			<rect id="SVGID_1_" x="70.6" y="134.6" width="5.6" height="6.8"/>
		</defs>
		<clipPath id="SVGID_2_">
			<use xlink:href="#SVGID_1_"  style="overflow:visible;"/>
		</clipPath>
		<path class="st4" d="M75.2,141.4h0.9l-2.3-6.8h-1l-2.3,6.8h0.9l0.7-2.1h2.5L75.2,141.4z M72.3,138.6l0.3-1
			c0.2-0.8,0.5-1.5,0.7-2.3h0c0.2,0.8,0.4,1.5,0.7,2.3l0.3,1H72.3z"/>
	</g>
	<path class="st0" d="M54,57.7v-2.6h1.2c1.2,0,1.9,0.4,1.9,1.2c0,0.9-0.7,1.4-1.9,1.4H54z M54,54.5v-2.2H55c1.1,0,1.6,0.3,1.6,1.1
		c0,0.8-0.5,1.2-1.6,1.2H54z M53.1,58.4h2.2c1.5,0,2.6-0.7,2.6-2c0-0.9-0.6-1.5-1.6-1.6v0c0.8-0.2,1.2-0.8,1.2-1.5
		c0-1.2-1-1.7-2.4-1.7h-2V58.4z"/>
	<path class="st0" d="M107.8,93.4V88h0.8c1.6,0,2.4,1,2.4,2.7c0,1.7-0.8,2.7-2.4,2.7H107.8z M106.9,94.1h1.7c2.1,0,3.2-1.3,3.2-3.4
		c0-2.2-1.1-3.4-3.2-3.4h-1.7V94.1z"/>
	<path class="st0" d="M108.9,34c0,2.2,1.3,3.5,3.1,3.5c0.9,0,1.7-0.4,2.1-0.8v-2.9h-2.2v0.7h1.4v1.8c-0.3,0.3-0.7,0.4-1.2,0.4
		c-1.5,0-2.3-1.1-2.3-2.8c0-1.7,0.9-2.8,2.3-2.8c0.7,0,1.1,0.3,1.4,0.6l0.5-0.6c-0.4-0.4-1-0.8-2-0.8
		C110.2,30.4,108.9,31.8,108.9,34z"/>
	<polygon class="st0" points="92.1,57.6 96.2,57.6 96.2,56.8 93,56.8 93,54.4 95.6,54.4 95.6,53.6 93,53.6 93,51.5 96.1,51.5 
		96.1,50.8 92.1,50.8 	"/>
	<path class="st0" d="M40,93.6c0.4,0.7,1,1.1,1.9,1.1c1.3,0,1.9-1,1.9-2.1v-4.8h-0.9v4.7c0,1-0.4,1.5-1.1,1.5
		c-0.5,0-0.9-0.2-1.2-0.8L40,93.6z"/>
	<polygon class="st0" points="15.4,101 16.2,101 16.2,97.8 19.4,97.8 19.4,101 20.3,101 20.3,94.2 19.4,94.2 19.4,97 16.2,97 
		16.2,94.2 15.4,94.2 	"/>
	<path class="st0" d="M125.3,18.8c0.6,0.6,1.4,1,2.4,1c1.4,0,2.3-0.9,2.3-1.9c0-1-0.6-1.5-1.4-1.8l-1-0.4c-0.5-0.2-1.1-0.5-1.1-1.1
		c0-0.6,0.5-1,1.3-1c0.6,0,1.1,0.2,1.6,0.6l0.5-0.6c-0.5-0.5-1.2-0.8-2-0.8c-1.2,0-2.2,0.8-2.2,1.8c0,1,0.7,1.5,1.4,1.8l1,0.4
		c0.6,0.3,1.1,0.5,1.1,1.2c0,0.7-0.5,1.1-1.4,1.1c-0.7,0-1.4-0.3-1.9-0.9L125.3,18.8z"/>
	<polygon class="st0" points="36.8,36.9 40.7,36.9 40.7,36.2 37.7,36.2 37.7,30.1 36.8,30.1 	"/>
	<path class="st0" d="M24.4,19.7c-1.2,0-2-1.1-2-2.8c0-1.7,0.8-2.7,2-2.7c1.2,0,2,1.1,2,2.7C26.4,18.6,25.6,19.7,24.4,19.7z
		 M24.4,20.4c1.7,0,2.9-1.4,2.9-3.6c0-2.2-1.2-3.5-2.9-3.5c-1.7,0-2.9,1.3-2.9,3.5C21.5,19.1,22.7,20.4,24.4,20.4z"/>
	<path class="st0" d="M71.7,114h0.8v-3.6c0-0.7-0.1-1.4-0.1-2.1h0l0.7,1.4l2.5,4.3h0.9v-6.8h-0.8v3.5c0,0.7,0.1,1.5,0.1,2.2h0
		l-0.7-1.4l-2.5-4.3h-0.9V114z"/>
	<g>
		<defs>
			<rect id="SVGID_3_" x="134.6" y="95.7" width="5.3" height="6.8"/>
		</defs>
		<clipPath id="SVGID_4_">
			<use xlink:href="#SVGID_3_"  style="overflow:visible;"/>
		</clipPath>
		<path class="st5" d="M136.7,102.6h1l2.2-6.8H139l-1.1,3.7c-0.2,0.8-0.4,1.5-0.7,2.3h0c-0.3-0.8-0.4-1.4-0.7-2.3l-1.1-3.7h-0.9
			L136.7,102.6z"/>
	</g>
	<path class="st0" d="M14.2,135.6c-0.2,0.1-0.4,0.1-0.7,0.1c-0.7,0-1.4-0.3-1.7-0.9c1.4-0.2,2.4-1.6,2.4-3.5c0-2.2-1.2-3.5-2.9-3.5
		c-1.7,0-2.9,1.3-2.9,3.5c0,2,1,3.3,2.5,3.5c0.4,0.9,1.3,1.6,2.5,1.6c0.4,0,0.8-0.1,1-0.2L14.2,135.6z M9.3,131.3
		c0-1.7,0.8-2.7,2-2.7c1.2,0,2,1.1,2,2.7c0,1.7-0.8,2.8-2,2.8C10.1,134.1,9.3,133,9.3,131.3z"/>
</g>
</svg>
